HIERARCHY
ROOT Hips
{
  OFFSET 0.307897 91.276 1.25051
  CHANNELS 6 Xposition Yposition Zposition Zrotation Xrotation Yrotation
  JOINT Spine
  {
    OFFSET 0 9.9235 -1.2273
    CHANNELS 6 Xposition Yposition Zposition Zrotation Xrotation Yrotation
    JOINT Spine1
    {
      OFFSET -0.0001 11.6454 -1.4223
      CHANNELS 6 Xposition Yposition Zposition Zrotation Xrotation Yrotation
      JOINT Spine2
      {
        OFFSET 0.0001 13.3602 -1.6265
        CHANNELS 6 Xposition Yposition Zposition Zrotation Xrotation Yrotation
        JOINT Neck
        {
          OFFSET 0 15.0325 0.7929
          CHANNELS 6 Xposition Yposition Zposition Zrotation Xrotation Yrotation
          JOINT Head
          {
            OFFSET 0 10.3218 3.1424
            CHANNELS 6 Xposition Yposition Zposition Zrotation Xrotation Yrotation
            JOINT HeadTop_End
            {
              OFFSET 0.0002 18.4747 6.6364
              CHANNELS 6 Xposition Yposition Zposition Zrotation Xrotation Yrotation
              End Site
              {
                OFFSET 0 0 0
              }
            }
            JOINT LeftEye
            {
              OFFSET 2.9479 7.6817 9.1207
              CHANNELS 6 Xposition Yposition Zposition Zrotation Xrotation Yrotation
              End Site
              {
                OFFSET 0 0 0
              }
            }
            JOINT RightEye
            {
              OFFSET -2.9445 7.6817 9.1205
              CHANNELS 6 Xposition Yposition Zposition Zrotation Xrotation Yrotation
              End Site
              {
                OFFSET 0 0 0
              }
            }
          }
        }
        JOINT LeftShoulder
        {
          OFFSET 6.1058 9.1104 0.7056
          CHANNELS 6 Xposition Yposition Zposition Zrotation Xrotation Yrotation
          JOINT LeftArm
          {
            OFFSET 12.655 -0.2659 -2.6009
            CHANNELS 6 Xposition Yposition Zposition Zrotation Xrotation Yrotation
            JOINT LeftForeArm
            {
              OFFSET 27.4047 0 0
              CHANNELS 6 Xposition Yposition Zposition Zrotation Xrotation Yrotation
              JOINT LeftHand
              {
                OFFSET 27.6145 0 0
                CHANNELS 6 Xposition Yposition Zposition Zrotation Xrotation Yrotation
                JOINT LeftHandMiddle1
                {
                  OFFSET 12.7755 0 0
                  CHANNELS 6 Xposition Yposition Zposition Zrotation Xrotation Yrotation
                  JOINT LeftHandMiddle2
                  {
                    OFFSET 3.614 0 0
                    CHANNELS 6 Xposition Yposition Zposition Zrotation Xrotation Yrotation
                    JOINT LeftHandMiddle3
                    {
                      OFFSET 3.4598 0 0
                      CHANNELS 6 Xposition Yposition Zposition Zrotation Xrotation Yrotation
                      End Site
                      {
                        OFFSET 3.6802 0 0
                      }
                    }
                  }
                }
                JOINT LeftHandThumb1
                {
                  OFFSET 3.7888 -2.167 3.0031
                  CHANNELS 6 Xposition Yposition Zposition Zrotation Xrotation Yrotation
                  JOINT LeftHandThumb2
                  {
                    OFFSET 3.6754 -2.122 2.122
                    CHANNELS 6 Xposition Yposition Zposition Zrotation Xrotation Yrotation
                    JOINT LeftHandThumb3
                    {
                      OFFSET 3.3944 -1.9597 1.9598
                      CHANNELS 6 Xposition Yposition Zposition Zrotation Xrotation Yrotation
                      End Site
                      {
                        OFFSET 2.6794 -1.5469 1.5469
                      }
                    }
                  }
                }
                JOINT LeftHandIndex1
                {
                  OFFSET 12.2666 -0.2317 2.8221
                  CHANNELS 6 Xposition Yposition Zposition Zrotation Xrotation Yrotation
                  JOINT LeftHandIndex2
                  {
                    OFFSET 3.892 0 0
                    CHANNELS 6 Xposition Yposition Zposition Zrotation Xrotation Yrotation
                    JOINT LeftHandIndex3
                    {
                      OFFSET 3.4152 0 0
                      CHANNELS 6 Xposition Yposition Zposition Zrotation Xrotation Yrotation
                      End Site
                      {
                        OFFSET 3.078 0 0
                      }
                    }
                  }
                }
                JOINT LeftHandRing1
                {
                  OFFSET 12.147 0.0099 -2.2166
                  CHANNELS 6 Xposition Yposition Zposition Zrotation Xrotation Yrotation
                  JOINT LeftHandRing2
                  {
                    OFFSET 3.6012 0 0
                    CHANNELS 6 Xposition Yposition Zposition Zrotation Xrotation Yrotation
                    JOINT LeftHandRing3
                    {
                      OFFSET 3.3073 0 0
                      CHANNELS 6 Xposition Yposition Zposition Zrotation Xrotation Yrotation
                      End Site
                      {
                        OFFSET 3.6601 0 0
                      }
                    }
                  }
                }
                JOINT LeftHandPinky1
                {
                  OFFSET 10.9082 -0.2264 -4.7258
                  CHANNELS 6 Xposition Yposition Zposition Zrotation Xrotation Yrotation
                  JOINT LeftHandPinky2
                  {
                    OFFSET 4.1367 0 0
                    CHANNELS 6 Xposition Yposition Zposition Zrotation Xrotation Yrotation
                    JOINT LeftHandPinky3
                    {
                      OFFSET 2.5948 0 0
                      CHANNELS 6 Xposition Yposition Zposition Zrotation Xrotation Yrotation
                      End Site
                      {
                        OFFSET 2.9239 0 0
                      }
                    }
                  }
                }
              }
            }
          }
        }
        JOINT RightShoulder
        {
          OFFSET -6.1057 9.1105 0.7056
          CHANNELS 6 Xposition Yposition Zposition Zrotation Xrotation Yrotation
          JOINT RightArm
          {
            OFFSET -12.655 -0.266 -2.6009
            CHANNELS 6 Xposition Yposition Zposition Zrotation Xrotation Yrotation
            JOINT RightForeArm
            {
              OFFSET -27.4047 0 0
              CHANNELS 6 Xposition Yposition Zposition Zrotation Xrotation Yrotation
              JOINT RightHand
              {
                OFFSET -27.6145 0 0
                CHANNELS 6 Xposition Yposition Zposition Zrotation Xrotation Yrotation
                JOINT RightHandMiddle1
                {
                  OFFSET -12.7755 0 0
                  CHANNELS 6 Xposition Yposition Zposition Zrotation Xrotation Yrotation
                  JOINT RightHandMiddle2
                  {
                    OFFSET -3.614 0 0
                    CHANNELS 6 Xposition Yposition Zposition Zrotation Xrotation Yrotation
                    JOINT RightHandMiddle3
                    {
                      OFFSET -3.4598 0 0
                      CHANNELS 6 Xposition Yposition Zposition Zrotation Xrotation Yrotation
                      End Site
                      {
                        OFFSET -3.6802 0 0
                      }
                    }
                  }
                }
                JOINT RightHandThumb1
                {
                  OFFSET -3.7888 -2.167 3.0031
                  CHANNELS 6 Xposition Yposition Zposition Zrotation Xrotation Yrotation
                  JOINT RightHandThumb2
                  {
                    OFFSET -3.6754 -2.122 2.122
                    CHANNELS 6 Xposition Yposition Zposition Zrotation Xrotation Yrotation
                    JOINT RightHandThumb3
                    {
                      OFFSET -3.3944 -1.9597 1.9598
                      CHANNELS 6 Xposition Yposition Zposition Zrotation Xrotation Yrotation
                      End Site
                      {
                        OFFSET -2.6794 -1.5469 1.5469
                      }
                    }
                  }
                }
                JOINT RightHandIndex1
                {
                  OFFSET -12.2666 -0.2317 2.8221
                  CHANNELS 6 Xposition Yposition Zposition Zrotation Xrotation Yrotation
                  JOINT RightHandIndex2
                  {
                    OFFSET -3.892 0 0
                    CHANNELS 6 Xposition Yposition Zposition Zrotation Xrotation Yrotation
                    JOINT RightHandIndex3
                    {
                      OFFSET -3.4152 0 0
                      CHANNELS 6 Xposition Yposition Zposition Zrotation Xrotation Yrotation
                      End Site
                      {
                        OFFSET -3.078 0 0
                      }
                    }
                  }
                }
                JOINT RightHandRing1
                {
                  OFFSET -12.147 0.0099 -2.2166
                  CHANNELS 6 Xposition Yposition Zposition Zrotation Xrotation Yrotation
                  JOINT RightHandRing2
                  {
                    OFFSET -3.6012 0 0
                    CHANNELS 6 Xposition Yposition Zposition Zrotation Xrotation Yrotation
                    JOINT RightHandRing3
                    {
                      OFFSET -3.3073 0 0
                      CHANNELS 6 Xposition Yposition Zposition Zrotation Xrotation Yrotation
                      End Site
                      {
                        OFFSET -3.6601 0 0
                      }
                    }
                  }
                }
                JOINT RightHandPinky1
                {
                  OFFSET -10.9082 -0.2264 -4.7258
                  CHANNELS 6 Xposition Yposition Zposition Zrotation Xrotation Yrotation
                  JOINT RightHandPinky2
                  {
                    OFFSET -4.1367 0 0
                    CHANNELS 6 Xposition Yposition Zposition Zrotation Xrotation Yrotation
                    JOINT RightHandPinky3
                    {
                      OFFSET -2.5948 0 0
                      CHANNELS 6 Xposition Yposition Zposition Zrotation Xrotation Yrotation
                      End Site
                      {
                        OFFSET -2.9239 0 0
                      }
                    }
                  }
                }
              }
            }
          }
        }
      }
    }
  }
  JOINT RightUpLeg
  {
    OFFSET -9.1245 -6.6564 -0.0554
    CHANNELS 6 Xposition Yposition Zposition Zrotation Xrotation Yrotation
    JOINT RightLeg
    {
      OFFSET -0.2447 -40.5954 -0.5145
      CHANNELS 6 Xposition Yposition Zposition Zrotation Xrotation Yrotation
      JOINT RightFoot
      {
        OFFSET 0.2447 -42.0479 -2.0602
        CHANNELS 6 Xposition Yposition Zposition Zrotation Xrotation Yrotation
        JOINT RightToeBase
        {
          OFFSET -0.3734 -10.4922 12.6407
          CHANNELS 6 Xposition Yposition Zposition Zrotation Xrotation Yrotation
          End Site
          {
            OFFSET 0 0 9.9925
          }
        }
      }
    }
  }
  JOINT LeftUpLeg
  {
    OFFSET 9.1245 -6.6564 -0.0554
    CHANNELS 6 Xposition Yposition Zposition Zrotation Xrotation Yrotation
    JOINT LeftLeg
    {
      OFFSET 0.2447 -40.5954 -0.517
      CHANNELS 6 Xposition Yposition Zposition Zrotation Xrotation Yrotation
      JOINT LeftFoot
      {
        OFFSET -0.2447 -42.048 -2.0576
        CHANNELS 6 Xposition Yposition Zposition Zrotation Xrotation Yrotation
        JOINT LeftToeBase
        {
          OFFSET 0.3734 -10.4922 0
          CHANNELS 6 Xposition Yposition Zposition Zrotation Xrotation Yrotation
          End Site
          {
            OFFSET 0 0 9.9925
          }
        }
      }
    }
  }
}
MOTION
Frames:	4
Frame Time:	0.0166667
2.87311 88.7493 100.322 0.70944 29.1913 0.71409 0 9.9235 -1.2273 6.2665 18.473 2.60205 -0.0001 11.6454 -1.4223 2.99785 12.647 0.779908 0.0001 13.3602 -1.6265 2.916 12.6622 0.780114 0 15.0325 0.7929 -1.83883 -12.7454 0.176432 0 10.3218 3.1424 -6.0454 -17.9629 -0.641457 0.0002 18.4747 6.6364 1.98785e-016 3.18055e-015 -1.78906e-015 2.9479 7.6817 9.1207 1.98785e-016 3.18055e-015 -1.78906e-015 -2.9445 7.6817 9.1205 1.98785e-016 3.18055e-015 -1.78906e-015 6.1058 9.1104 0.7056 -4.34165 1.56778 -5.8512 12.655 -0.2659 -2.6009 -45.9837 -4.07496 -19.5556 27.4047 0 0 1.10844e-005 -1.12454e-005 -2.62113 27.6145 0 0 3.31612 14.8958 -23.7467 12.7755 -2.84217e-014 0 -29.9069 -1.87977 -0.523291 3.614 1.42109e-014 0 -55.6508 -2.56143 4.85089 3.4598 0 0 -17.4912 -0.271399 1.76411 3.7888 -2.167 3.0031 0.991558 -9.28367 -7.33914 3.6754 -2.122 2.122 2.43324 9.70637 29.9329 3.3944 -1.9597 1.9598 17.7459 8.44428 34.4487 12.2666 -0.2317 2.8221 -26.4288 -0.814534 -4.45831 3.892 -1.42109e-014 0 -39.9402 -1.37043 3.77021 3.4152 -3.55271e-015 -1.42109e-014 -41.1838 -1.45343 3.86721 12.147 0.0099 -2.2166 -30.3483 -1.94573 5.0402 3.6012 -1.42109e-014 7.10543e-015 -56.4995 -2.63376 4.8996 3.3073 -7.10543e-015 -1.42109e-014 -43.4735 -1.61166 4.04098 10.9082 -0.2264 -4.7258 -43.2741 -13.5498 17.4178 4.1367 0 1.42109e-014 -36.8886 -1.1759 3.52486 2.5948 -3.55271e-015 0 -50.6611 -2.15154 4.5435 -6.1057 9.1105 0.7056 0.249954 2.49313 20.4337 -12.655 -0.266 -2.6009 18.3877 -46.4078 40.452 -27.4047 0 -2.84217e-014 2.25251e-006 3.75511e-006 39.8455 -27.6145 0 0 -17.7562 6.3635 21.2843 -12.7755 0 -7.10543e-015 37.7787 -2.34202 -4.88748 -3.614 0 -3.55271e-015 51.5146 -1.76336 -3.65368 -3.4598 -2.84217e-014 0 30.6842 -0.65332 -2.38098 -3.7888 -2.167 3.0031 10.6095 2.54063 6.16326 -3.6754 -2.122 2.122 -2.86625 9.97117 -30.5227 -3.3944 -1.9597 1.9598 -16.8831 4.08054 -24.0309 -12.2666 -0.2317 2.8221 16.0045 8.61066 2.30424 -3.892 -2.84217e-014 8.88178e-016 61.3141 -2.42821 -4.09545 -3.4152 -2.84217e-014 1.77636e-015 -6.53343 -0.0302952 0.53076 -12.147 0.0099 -2.2166 55.1211 -3.82911 -10.522 -3.6012 0 3.55271e-015 31.5269 -0.688794 -2.43979 -3.3073 -2.84217e-014 0 54.7263 -1.9728 -3.81088 -10.9082 -0.2264 -4.7258 45.9062 -7.36704 -16.6854 -4.1367 0 0 31.5516 -0.689846 -2.44149 -2.5948 0 -7.10543e-015 54.7434 -1.97394 -3.81169 -9.1245 -6.6564 -0.0554 -7.36037 -67.4535 -20.34 -0.2447 -40.5954 -0.5145 -6.43642 52.0017 6.56764 0.2447 -42.0479 -2.0602 -3.88519 -14.0934 -7.82025 -0.3734 -10.4922 12.6407 -7.88545e-007 -6.44405 -1.19687e-005 9.1245 -6.6564 -0.0554 51.4135 -64.7836 53.8458 0.2447 -40.5954 -0.517 -3.03633 43.8686 -1.04384 -0.2447 -42.048 -2.0576 0.338268 12.7166 27.3784 0.3734 -10.4922 12.6407 -4.77203e-007 -1.76677 9.03097e-006 
3.12991 89.4036 102.631 0.321477 27.4363 1.28212 0 9.9235 -1.2273 6.4226 17.7827 2.8149 -0.0001 11.6454 -1.4223 2.78169 12.0625 1.01192 0.0001 13.3602 -1.6265 2.67136 12.084 1.0277 0 15.0325 0.7929 -1.76179 -12.7349 -0.0254784 -3.55271e-015 10.3218 3.1424 -5.40442 -15.1102 -1.4287 0.0002 18.4747 6.6364 -3.97569e-016 -6.36111e-015 -0 2.9479 7.6817 9.1207 -3.97569e-016 -6.36111e-015 -0 -2.9445 7.6817 9.1205 -3.97569e-016 -6.36111e-015 -0 6.1058 9.1104 0.7056 -3.8808 1.52997 -5.8068 12.655 -0.2659 -2.6009 -45.5423 -4.15464 -17.2101 27.4047 -2.84217e-014 0 -2.77066e-006 -4.03658e-006 -2.12434 27.6145 0 -1.42109e-014 -6.88819 19.8855 -18.2103 12.7755 1.42109e-014 7.10543e-015 -30.6176 -1.9427 -0.437138 3.614 0 2.84217e-014 -60.8648 -3.01663 5.13284 3.4598 0 -7.10543e-015 -18.95 -0.318141 1.90609 3.7888 -2.167 3.0031 0.549604 -8.89114 -7.41595 3.6754 -2.122 2.122 2.43324 9.70637 29.9329 3.3944 -1.9597 1.9598 17.7459 8.44428 34.4487 12.2666 -0.2317 2.8221 -28.7859 -0.806253 -4.75837 3.892 0 0 -45.2424 -1.73861 4.17087 3.4152 0 0 -41.7598 -1.49257 3.91151 12.147 0.0099 -2.2166 -33.7937 -2.25636 5.26803 3.6012 0 1.42109e-014 -62.5715 -3.17099 5.21599 3.3073 -2.84217e-014 1.42109e-014 -48.2946 -1.96686 4.38555 10.9082 -0.2264 -4.7258 -46.7902 -14.6041 16.9281 4.1367 7.10543e-015 -2.84217e-014 -42.4105 -1.53732 3.96108 2.5948 -1.42109e-014 0 -57.5231 -2.72192 4.95688 -6.1057 9.1105 0.7056 -0.527612 2.25007 19.8375 -12.655 -0.266 -2.6009 17.1439 -44.1159 36.803 -27.4047 0 -1.42109e-014 -6.21471e-006 3.56589e-006 41.1557 -27.6145 0 0 -19.0458 5.74931 23.1862 -12.7755 -1.42109e-014 0 36.1304 -2.20772 -4.88374 -3.614 0 0 54.3369 -1.94694 -3.79246 -3.4598 0 -3.55271e-015 32.8187 -0.74484 -2.52886 -3.7888 -2.167 3.0031 10.1183 2.33534 6.82518 -3.6754 -2.122 2.122 -2.86625 9.97117 -30.5227 -3.3944 -1.9597 1.9598 -16.9519 4.7284 -25.3761 -12.2666 -0.2317 2.8221 14.1994 8.74948 2.34826 -3.892 0 0 62.5848 -2.51966 -4.14422 -3.4152 0 0 -5.11815 -0.0186107 0.416123 -12.147 0.0099 -2.2166 54.4471 -3.76991 -10.2873 -3.6012 2.84217e-014 -3.55271e-015 35.8875 -0.885929 -2.73534 -3.3073 0 -3.55271e-015 57.053 -2.12987 -3.91735 -10.9082 -0.2264 -4.7258 46.5303 -7.8829 -16.7934 -4.1367 0 -7.10543e-015 36.1372 -0.897906 -2.75178 -2.5948 -2.84217e-014 -3.55271e-015 57.4249 -2.15538 -3.93377 -9.1245 -6.6564 -0.0554 -6.44981 -63.467 -19.3282 -0.2447 -40.5954 -0.5145 -6.37473 51.5589 6.13298 0.2447 -42.0479 -2.0602 -3.1983 -15.8652 -7.75083 -0.3734 -10.4922 12.6407 1.00236e-006 -6.7979 -4.80524e-006 9.1245 -6.6564 -0.0554 45.824 -62.1928 48.7545 0.2447 -40.5954 -0.517 -2.82842 39.2009 -0.873488 -0.2447 -42.048 -2.0576 -1.66884 14.897 26.9237 0.3734 -10.4922 12.6407 -7.15081e-006 -1.11147 -2.71695e-005 
3.40268 90.0687 105.029 -0.0700904 25.5562 1.77892 4.44089e-016 9.9235 -1.2273 6.5404 17.0081 2.99902 -0.0001 11.6454 -1.4223 2.56484 11.4165 1.23068 0.0001 13.3602 -1.6265 2.4334 11.4448 1.25793 -7.10543e-015 15.0325 0.7929 -1.69077 -12.7475 -0.246403 3.55271e-015 10.3218 3.1424 -4.51594 -11.8342 -2.18536 0.0002 18.4747 6.6364 -1.59028e-015 6.36111e-015 5.96354e-016 2.9479 7.6817 9.1207 -1.59028e-015 6.36111e-015 5.96354e-016 -2.9445 7.6817 9.1205 -1.59028e-015 6.36111e-015 5.96354e-016 6.1058 9.1104 0.7056 -3.34393 1.47625 -5.75851 12.655 -0.2659 -2.6009 -45.2731 -4.33813 -14.1009 27.4047 0 0 -2.72918e-006 8.84147e-006 -2.66998 27.6145 0 7.10543e-015 -15.895 23.603 -13.2378 12.7755 0 1.42109e-014 -30.7378 -1.9542 -0.34122 3.614 -1.42109e-014 0 -65.0941 -3.40345 5.33041 3.4598 -2.84217e-014 0 -20.1775 -0.360267 2.02463 3.7888 -2.167 3.0031 0.0289123 -8.4275 -7.49067 3.6754 -2.122 2.122 2.43324 9.70637 29.9329 3.3944 -1.9597 1.9598 17.7459 8.44428 34.4487 12.2666 -0.2317 2.8221 -30.6897 -0.734224 -5.07393 3.892 0 -7.10543e-015 -49.8996 -2.0914 4.4935 3.4152 -1.42109e-014 2.13163e-014 -41.6852 -1.48749 3.90579 12.147 0.0099 -2.2166 -36.7474 -2.53323 5.44825 3.6012 0 0 -67.8575 -3.66362 5.44388 3.3073 0 -2.84217e-014 -53.1508 -2.3527 4.70133 10.9082 -0.2264 -4.7258 -50.0269 -15.5404 16.4204 4.1367 1.06581e-014 -1.42109e-014 -47.7218 -1.92318 4.34619 2.5948 1.42109e-014 0 -64.2757 -3.32748 5.29441 -6.1057 9.1105 0.7056 -1.12825 2.09584 19.2303 -12.655 -0.266 -2.6009 15.9241 -39.6405 32.6691 -27.4047 0 -1.42109e-014 1.0205e-005 -2.12677e-006 42.3842 -27.6145 0 0 -19.7385 5.88398 22.3933 -12.7755 1.42109e-014 7.99361e-015 34.1734 -2.05092 -4.86916 -3.614 0 -3.55271e-015 56.977 -2.12467 -3.91399 -3.4598 -2.84217e-014 1.77636e-015 34.9197 -0.840239 -2.67102 -3.7888 -2.167 3.0031 9.57431 2.09567 7.55473 -3.6754 -2.122 2.122 -2.86625 9.97117 -30.5227 -3.3944 -1.9597 1.9598 -17.0024 5.33455 -26.6324 -12.2666 -0.2317 2.8221 12.2561 8.86394 2.37168 -3.892 0 0 63.6995 -2.60076 -4.18533 -3.4152 0 0 -3.73213 -0.0098916 0.303632 -12.147 0.0099 -2.2166 53.3093 -3.66887 -10.0627 -3.6012 0 -7.10543e-015 40.204 -1.1027 -3.01234 -3.3073 0 -3.55271e-015 58.8627 -2.25496 -3.9957 -10.9082 -0.2264 -4.7258 46.8552 -8.42091 -16.9523 -4.1367 0 -3.55271e-015 40.6618 -1.1269 -3.04077 -2.5948 -2.84217e-014 -7.10543e-015 59.9014 -2.32785 -4.03887 -9.1245 -6.6564 -0.0554 -5.4374 -59.1408 -18.2319 -0.2447 -40.5954 -0.5145 -6.27405 50.7932 6.0553 0.2447 -42.0479 -2.0602 -2.59299 -17.5196 -8.08789 -0.3734 -10.4922 12.6407 4.49894e-007 -7.09751 8.53165e-006 9.1245 -6.6564 -0.0554 41.3754 -59.0746 44.7965 0.2447 -40.5954 -0.517 -2.70963 35.8874 -0.615134 -0.2447 -42.048 -2.0576 -3.62337 16.0034 26.3492 0.3734 -10.4922 12.6407 -0.00103597 -0.70891 -4.81905e-005 
3.68633 90.9018 107.68 -0.436533 23.6202 2.26883 -8.88178e-016 9.9235 -1.2273 6.58502 16.14 3.11698 -0.0001 11.6454 -1.4223 2.35912 10.7175 1.43543 0.0001 13.3602 -1.6265 2.2176 10.7524 1.47216 -7.10543e-015 15.0325 0.7929 -1.62715 -11.988 -0.489276 -3.55271e-015 10.3218 3.1424 -3.58985 -8.20907 -3.00514 0.0002 18.4747 6.6364 -5.96354e-016 -6.36111e-015 1.98785e-016 2.9479 7.6817 9.1207 -5.96354e-016 -6.36111e-015 1.98785e-016 -2.9445 7.6817 9.1205 -5.96354e-016 -6.36111e-015 1.98785e-016 6.1058 9.1104 0.7056 -2.73101 1.4098 -5.70686 12.655 -0.2659 -2.6009 -44.2737 -4.58795 -10.7314 27.4047 0 -2.84217e-014 1.1778e-005 -3.96557e-006 -3.40822 27.6145 0 0 -25.0957 26.3297 -5.94574 12.7755 0 0 -30.2545 -1.91275 -0.243486 3.614 0 0 -68.1278 -3.68933 5.4543 3.4598 0 0 -20.926 -0.387194 2.09646 3.7888 -2.167 3.0031 -0.550133 -7.91004 -7.56161 3.6754 -2.122 2.122 2.43324 9.70637 29.9329 3.3944 -1.9597 1.9598 17.7459 8.44428 34.4487 12.2666 -0.2317 2.8221 -32.0442 -0.607398 -5.40078 3.892 -1.06581e-014 -7.10543e-015 -53.6518 -2.39402 4.73204 3.4152 0 1.42109e-014 -40.9496 -1.43763 3.84907 12.147 0.0099 -2.2166 -39.0911 -2.7593 5.58098 3.6012 8.88178e-015 -2.84217e-014 -71.5596 -4.02003 5.57597 3.3073 -1.42109e-014 0 -57.7163 -2.73866 4.96752 10.9082 -0.2264 -4.7258 -52.6276 -16.2671 15.9745 4.1367 -7.10543e-015 1.42109e-014 -52.5598 -2.30434 4.66465 2.5948 1.42109e-014 1.42109e-014 -70.4367 -3.91103 5.53834 -6.1057 9.1105 0.7056 -1.55364 1.9823 18.4437 -12.655 -0.266 -2.6009 14.7611 -34.3145 26.7156 -27.4047 0 0 1.89061e-006 1.33515e-006 44.384 -27.6145 0 0 -18.0277 6.23945 21.7785 -12.7755 0 3.55271e-015 31.9573 -1.87707 -4.84243 -3.614 0 2.66454e-015 59.4153 -2.29364 -4.01882 -3.4598 0 -3.55271e-015 36.9597 -0.937827 -2.80566 -3.7888 -2.167 3.0031 8.98872 1.82314 8.33573 -3.6754 -2.122 2.122 -2.86625 9.97117 -30.5227 -3.3944 -1.9597 1.9598 -17.0372 5.89544 -27.7939 -12.2666 -0.2317 2.8221 10.2166 8.94373 2.37236 -3.892 0 0 64.6571 -2.67103 -4.21936 -3.4152 2.84217e-014 0 -2.39458 -0.00407168 0.194882 -12.147 0.0099 -2.2166 51.7566 -3.53086 -9.85196 -3.6012 0 0 44.4277 -1.33442 -3.26693 -3.3073 -2.84217e-014 0 60.1709 -2.34688 -4.04984 -10.9082 -0.2264 -4.7258 46.8982 -8.97577 -17.152 -4.1367 0 3.55271e-015 45.0757 -1.37163 -3.30446 -2.5948 0 -3.55271e-015 61.8138 -2.46406 -4.11489 -9.1245 -6.6564 -0.0554 -4.36325 -54.1601 -17.1436 -0.2447 -40.5954 -0.5145 -6.08249 49.2075 5.50452 0.2447 -42.0479 -2.0602 -1.83322 -18.9831 -8.01553 -0.3734 -10.4922 12.6407 -1.90455e-006 -7.29628 -2.61491e-006 9.1245 -6.6564 -0.0554 37.6008 -55.62 41.0081 0.2447 -40.5954 -0.517 -2.64091 34.0495 1.38708 -0.2447 -42.048 -2.0576 -5.34639 15.8655 24.2553 0.3734 -10.4922 12.6407 -2.34083 -1.67755 -0.01147 
